# xmcd
# Track frame offsets:
# 150
# 17137
# 34294
# 46053
# 59445
# 76445
# 94027
# 107796
# 126260
# 142620
# 158546
# 177828
#
# Disc length: 2615 seconds
# Revision: 0
# Processed by: cddbd v1.5.2PL0 Copyright (c) Steve Scherf et al.
# Submitted via: VisiTrax 2.10.1.251 - For more info visit www.synapsa.com
#
DISCID=910a350c
DTITLE=Wendy Van Wanten - Woman In Love
DYEAR=2006
DGENRE=Pop
TTITLE0=Woman In Love
TTITLE1=Do That To Me One More Time
TTITLE2=Don't It Make My Brown Eyes Blue
TTITLE3=Forever Yours
TTITLE4=From This Moment On
TTITLE5=When I Need You
TTITLE6=If You Leave Me Now
TTITLE7=Nights In White Satin
TTITLE8=Just The Two Of Us
TTITLE9=Wrap Your Arms Around Me
TTITLE10=You Know How To Love Me
TTITLE11=Where Is My Man?
EXTD=
EXTT0=
EXTT1=
EXTT2=
EXTT3=
EXTT4=
EXTT5=
EXTT6=
EXTT7=
EXTT8=
EXTT9=
EXTT10=
EXTT11=
PLAYORDER=
